<svg xmlns="http://www.w3.org/2000/svg" viewBox="0 0 204 36" enable-background="new 0 0 204 36"><g fill="#6184b3"><path d="m18.481 4.485l5 1-5-5.485-5 5.485z"/><path d="m18.482 31.515l-5-1 5 5.485 5-5.485z"/><path d="m4.967 18l1-5-5.486 5 5.486 5z"/><path d="m30.996 17.999l-1 5 6.485-5-6.485-4.999z"/><path d="m18.481 2c-8.837 0-16 7.163-16 16 0 8.836 7.163 16 16 16 8.836 0 16-7.164 16-16 0-8.837-7.164-16-16-16m0 28c-6.617 0-12-5.383-12-12s5.383-12 12-12 12 5.383 12 12-5.382 12-12 12"/></g><g fill="#f2eee3"><path d="m54.38 19h-3.432l.264-2.401h5.952v8.06c-.672.352-1.448.64-2.328.863s-1.8.336-2.76.336c-1.648 0-3.084-.372-4.309-1.115-1.224-.744-2.164-1.756-2.819-3.037-.656-1.279-.984-2.703-.984-4.271 0-1.632.364-3.1 1.092-4.404.728-1.304 1.74-2.324 3.036-3.06s2.752-1.104 4.368-1.104c.592 0 1.32.088 2.184.264.864.176 1.624.44 2.28.792l-.983 2.232c-.448-.144-.664-.208-.648-.192-.608-.176-1.092-.3-1.452-.372-.359-.072-.804-.108-1.332-.108-.992 0-1.888.224-2.688.672-.801.448-1.437 1.116-1.908 2-.473.888-.708 1.972-.708 3.252 0 1.168.2 2.196.6 3.084.4.887.964 1.567 1.692 2.039.728.473 1.563.709 2.508.709.736 0 1.528-.088 2.376-.265v-3.983"/><path d="m64.861 16.961c-.776.384-1.5.872-2.172 1.464v7.104h-3.12v-11.64h1.632l1.032 1.944c.56-.496 1.216-.944 1.968-1.344.752-.4 1.416-.6 1.992-.6l.624 2.496c-.528 0-1.181.192-1.956.576"/><path d="m72.41 16.458c-.528 0-1.112.076-1.752.228-.641.152-1.185.333-1.632.54l-.84-2.592c.415-.272 1.08-.516 1.991-.732.912-.216 1.641-.324 2.185-.324.928 0 1.775.184 2.544.552.768.368 1.38.88 1.836 1.536s.684 1.392.684 2.208v7.656h-2.04l-.527-1.248c-.977 1.024-2 1.536-3.072 1.536-1.392 0-2.44-.34-3.144-1.021-.705-.68-1.057-1.596-1.057-2.748 0-1.184.4-2.1 1.2-2.748.8-.647 1.872-.972 3.216-.972h2.28c-.017-.592-.188-1.052-.516-1.38-.328-.327-.78-.491-1.356-.491m-.456 3.96c-.513 0-.924.16-1.236.479-.312.32-.468.704-.468 1.151 0 .353.14.656.42.912s.636.385 1.068.385c.928 0 1.784-.385 2.567-1.152v-1.775h-2.351"/><path d="m85.73 16.1c-.544 0-1.056.124-1.535.372-.48.249-1.01.58-1.584.996v8.06h-3.12v-11.64h2.04l.527 1.248c.721-.512 1.488-.912 2.305-1.2.815-.288 1.544-.432 2.184-.432 1.472 0 2.504.416 3.096 1.248s.889 1.992.889 3.48v7.296h-3.12v-7.152c0-.72-.148-1.28-.444-1.68-.298-.4-.71-.6-1.238-.6"/><path d="m96.65 13.913h2.111l.96 2.4h-3.071v4.944c0 .623.147 1.127.443 1.512.296.384.716.576 1.26.576.416 0 .841-.104 1.272-.312l.912 2.256c-.24.192-.597.36-1.068.504-.472.145-.899.217-1.284.217-1.456 0-2.592-.369-3.407-1.104-.816-.735-1.225-1.768-1.225-3.097v-5.495h-1.56v-2.4h1.56v-2.76l3.097-.552v3.311"/><path d="m106.03 14.609v10.92h-3.096v-16.32h3.096l7.561 10.896v-10.896h3.119v16.32h-3.119l-7.561-10.92"/><path d="m123.62 16.458c-.527 0-1.111.076-1.752.228-.641.152-1.184.333-1.631.54l-.84-2.592c.414-.272 1.08-.516 1.99-.732.912-.216 1.641-.324 2.186-.324.928 0 1.775.184 2.543.552s1.381.88 1.836 1.536c.457.656.684 1.392.684 2.208v7.656h-2.039l-.527-1.248c-.977 1.024-2 1.536-3.072 1.536-1.393 0-2.441-.34-3.145-1.021-.705-.68-1.057-1.596-1.057-2.748 0-1.184.4-2.1 1.201-2.748.799-.647 1.871-.972 3.215-.972h2.281c-.018-.592-.189-1.052-.516-1.38-.328-.327-.781-.491-1.357-.491m-.455 3.96c-.514 0-.924.16-1.236.479-.312.32-.469.704-.469 1.151 0 .353.141.656.42.912.281.256.637.385 1.068.385.928 0 1.785-.385 2.568-1.152v-1.775h-2.351"/><path d="m141.19 13.889l-4.584 11.64h-2.688l-4.297-11.16 3.049-.912 2.688 7.488 2.543-7.06h3.289"/><path d="m146.06 10.481c0 .496-.172.912-.516 1.248-.344.336-.764.504-1.26.504-.48 0-.889-.168-1.225-.504-.336-.336-.504-.752-.504-1.248s.168-.912.504-1.248.744-.504 1.225-.504c.496 0 .916.168 1.26.504s.516.752.516 1.248m-.191 3.408v11.64h-3.119v-11.64h3.119"/><path d="m159.36 26.08c0 1.6-.561 2.828-1.68 3.685-1.121.855-2.625 1.283-4.514 1.283-.592 0-1.391-.124-2.398-.371-1.01-.249-1.793-.564-2.354-.948l.938-2.208c.719.352 1.375.607 1.967.768s1.184.248 1.777.265c.943-.017 1.699-.249 2.268-.696.568-.448.852-1.048.852-1.8v-.984c-.801.496-1.656.744-2.568.744-1.809 0-3.236-.548-4.283-1.644-1.049-1.096-1.572-2.58-1.572-4.453 0-1.215.236-2.287.707-3.215.473-.928 1.156-1.648 2.053-2.16.896-.512 1.959-.768 3.191-.768.529 0 1.092.128 1.693.384.6.256 1.131.584 1.596.984l.695-1.056h1.633v12.19m-3.145-3.888v-4.968c-.416-.352-.816-.604-1.199-.756-.385-.152-.801-.228-1.248-.228-.85 0-1.521.324-2.02.972s-.742 1.484-.742 2.507c0 1.025.242 1.853.73 2.484.488.633 1.164.948 2.029.948.416 0 .818-.08 1.211-.24.393-.158.805-.398 1.237-.719"/><path d="m166.17 16.458c-.527 0-1.111.076-1.752.228-.641.152-1.184.333-1.631.54l-.84-2.592c.414-.272 1.08-.516 1.99-.732.912-.216 1.641-.324 2.186-.324.928 0 1.775.184 2.543.552s1.381.88 1.836 1.536c.457.656.684 1.392.684 2.208v7.656h-2.039l-.527-1.248c-.977 1.024-2 1.536-3.072 1.536-1.393 0-2.441-.34-3.145-1.021-.705-.68-1.057-1.596-1.057-2.748 0-1.184.4-2.1 1.201-2.748.799-.647 1.871-.972 3.215-.972h2.281c-.018-.592-.189-1.052-.516-1.38-.328-.327-.781-.491-1.357-.491m-.455 3.96c-.514 0-.924.16-1.236.479-.312.32-.469.704-.469 1.151 0 .353.141.656.42.912.281.256.637.385 1.068.385.928 0 1.785-.385 2.568-1.152v-1.775h-2.351"/><path d="m177.31 13.913h2.111l.961 2.4h-3.072v4.944c0 .623.148 1.127.443 1.512.297.384.717.576 1.26.576.416 0 .842-.104 1.273-.312l.912 2.256c-.24.192-.598.36-1.068.504-.473.145-.9.217-1.285.217-1.455 0-2.592-.369-3.406-1.104-.816-.735-1.225-1.768-1.225-3.097v-5.495h-1.561v-2.4h1.561v-2.76l3.096-.552v3.311"/><path d="m187.9 25.817c-1.248 0-2.34-.248-3.275-.744-.938-.495-1.66-1.204-2.172-2.124-.514-.92-.77-1.996-.77-3.229 0-1.231.256-2.312.77-3.239.512-.928 1.234-1.644 2.172-2.148.936-.504 2.027-.756 3.275-.756s2.34.249 3.275.744c.938.496 1.66 1.204 2.172 2.124.512.92.77 1.996.77 3.229s-.258 2.312-.77 3.239c-.512.929-1.234 1.644-2.172 2.148-.936.504-2.027.756-3.275.756m3-6.143c0-1.01-.279-1.833-.84-2.473-.561-.64-1.281-.96-2.16-.96-.863 0-1.58.328-2.148.984-.568.656-.852 1.488-.852 2.496 0 1.01.279 1.833.84 2.473.561.641 1.279.96 2.16.96.863 0 1.58-.327 2.148-.983s.852-1.489.852-2.497"/><path d="m201.32 16.961c-.775.384-1.5.872-2.172 1.464v7.104h-3.119v-11.64h1.631l1.033 1.944c.559-.496 1.215-.944 1.967-1.344.752-.4 1.416-.6 1.992-.6l.625 2.496c-.529 0-1.181.192-1.957.576"/><path d="m12.481 24l8-4 4-8-8 4z"/></g><path fill="#f26522" d="m19.19 17.293l1.291 2.707 4-8-8 4z"/></svg>